<?xml version="1.0" encoding="UTF-8" standalone="no"?>
<!-- Created with Inkscape (http://www.inkscape.org/) -->

<svg
   xmlns:dc="http://purl.org/dc/elements/1.1/"
   xmlns:cc="http://creativecommons.org/ns#"
   xmlns:rdf="http://www.w3.org/1999/02/22-rdf-syntax-ns#"
   xmlns:svg="http://www.w3.org/2000/svg"
   xmlns="http://www.w3.org/2000/svg"
   xmlns:sodipodi="http://sodipodi.sourceforge.net/DTD/sodipodi-0.dtd"
   xmlns:inkscape="http://www.inkscape.org/namespaces/inkscape"
   width="500"
   height="500"
   viewBox="0 0 500.00001 500.00001"
   id="svg2"
   version="1.1"
   inkscape:version="0.91 r13725"
   sodipodi:docname="imbay.svg"
   inkscape:export-filename="/home/nurasyl/imbay/www/img/main_logo.png"
   inkscape:export-xdpi="90"
   inkscape:export-ydpi="90">
  <defs
     id="defs4" />
  <sodipodi:namedview
     id="base"
     pagecolor="#ffffff"
     bordercolor="#666666"
     borderopacity="1.0"
     inkscape:pageopacity="0.0"
     inkscape:pageshadow="2"
     inkscape:zoom="1"
     inkscape:cx="79.55988"
     inkscape:cy="297.8009"
     inkscape:document-units="px"
     inkscape:current-layer="layer1"
     showgrid="false"
     units="px"
     inkscape:window-width="1535"
     inkscape:window-height="876"
     inkscape:window-x="65"
     inkscape:window-y="24"
     inkscape:window-maximized="1"
     showguides="true"
     inkscape:guide-bbox="true" />
  <metadata
     id="metadata7">
    <rdf:RDF>
      <cc:Work
         rdf:about="">
        <dc:format>image/svg+xml</dc:format>
        <dc:type
           rdf:resource="http://purl.org/dc/dcmitype/StillImage" />
        <dc:title />
      </cc:Work>
    </rdf:RDF>
  </metadata>
  <g
     inkscape:label="Layer 1"
     inkscape:groupmode="layer"
     id="layer1"
     transform="translate(0,-552.36216)">
    <g
       id="g3363"
       transform="matrix(2.0500497,0,0,2.050052,-272.1501,-908.54012)"
       style="fill:#2196f3;fill-opacity:1">
      <text
         sodipodi:linespacing="125%"
         id="text3355"
         y="869.60724"
         x="241.98636"
         style="font-style:normal;font-weight:normal;font-size:40px;line-height:125%;font-family:sans-serif;letter-spacing:0px;word-spacing:0px;fill:#2196f3;fill-opacity:1;stroke:none;stroke-width:1px;stroke-linecap:butt;stroke-linejoin:miter;stroke-opacity:1"
         xml:space="preserve"><tspan
           style="font-style:normal;font-variant:normal;font-weight:normal;font-stretch:normal;font-size:60px;font-family:'Star Avenue';-inkscape-font-specification:'Star Avenue';fill:#2196f3;fill-opacity:1"
           y="869.60724"
           x="241.98636"
           id="tspan3357"
           sodipodi:role="line">bay</tspan></text>
      <path
         id="path3335"
         transform="translate(0,552.36216)"
         d="M 198.75,253.90039 A 41.607143,41.607143 0 0 0 157.14258,295.50781 41.607143,41.607143 0 0 0 198.75,337.11523 41.607143,41.607143 0 0 0 240.35742,295.50781 41.607143,41.607143 0 0 0 198.75,253.90039 Z m -25.40039,19.86914 c 1.62109,0 2.71484,0.89844 3.28125,2.69531 l 0.0879,0.76172 c 0,1.58203 -0.84961,2.68555 -2.54883,3.31055 l -0.67383,0.0586 -0.29297,0 c -1.54296,0 -2.61718,-0.84961 -3.22265,-2.54882 l -0.0879,-0.67383 0,-0.23438 c 0,-1.5625 0.82031,-2.63672 2.46094,-3.22265 l 0.99609,-0.14649 z m -3.45703,9.19922 6.82617,0 0,34.27734 -6.82617,0 0,-34.27734 z m 9.72656,0 6.82617,0 0,1.78711 0.0879,0 c 2.12891,-1.19141 4.39453,-1.78711 6.79688,-1.78711 3.96484,0 7.39258,1.55273 10.2832,4.6582 2.8125,-3.10547 6.28906,-4.6582 10.42969,-4.6582 3.76953,0 7.09961,1.47461 9.99023,4.42383 2.38282,2.69531 3.57422,5.84961 3.57422,9.46289 l 0,20.39062 -6.82617,0 0,-20.39062 c 0,-3.16406 -1.5918,-5.41992 -4.77539,-6.76758 -0.87891,-0.19531 -1.58203,-0.29297 -2.10938,-0.29297 -2.79296,0 -4.92187,1.42578 -6.38671,4.27735 -0.35157,0.91796 -0.52735,2.07031 -0.52735,3.45703 l 0,19.71679 -6.82617,0 0,-20.77148 c 0,-2.5 -1.31836,-4.53125 -3.95508,-6.09375 -1.09375,-0.39063 -2.09961,-0.58594 -3.01758,-0.58594 -2.51953,0 -4.57031,1.32813 -6.15234,3.98438 -0.39063,1.09375 -0.58594,2.01172 -0.58594,2.7539 l 0,20.71289 -6.82617,0 0,-34.27734 z"
         style="fill:#2196f3;fill-opacity:1"
         inkscape:connector-curvature="0" />
    </g>
  </g>
</svg>
